<?xml version="1.0" encoding="UTF-8"?>
<svg id="Layer_1" data-name="Layer 1" xmlns="http://www.w3.org/2000/svg" viewBox="0 0 2160 2160">
  <defs>
    <style>
      .cls-1 {
        fill: #014040;
      }

      .cls-2 {
        fill: #f27405;
      }

      .cls-3 {
        fill: #008f8c;
      }
    </style>
  </defs>
  <g>
    <circle class="cls-2" cx="462.4" cy="787.35" r="194.17"/>
    <path class="cls-3" d="m365.7,1913.4c-38.77,0-78.14-3.91-117.79-11.72-43.02-8.47-71.03-50.22-62.56-93.24,8.47-43.02,50.23-71.03,93.24-62.56,128.63,25.34,221.51-8.56,276.78-41.45,68.75-40.92,117.79-103.72,134.54-172.29,10.39-42.52,12.94-107.18-33.89-173.72-46.61-66.23-132.05-119.03-247.08-152.69-53.9-15.78-103.42-37.44-147.19-64.39-43.04-26.5-80.68-58.2-111.87-94.2-61.34-70.79-96.71-156.87-102.31-248.96-3.2-52.56,3.35-105.77,19.46-158.15,16.12-52.41,41.52-102.99,75.51-150.32,70.48-98.15,176.55-179.63,306.74-235.63,40.28-17.33,86.98,1.28,104.31,41.57,17.32,40.28-1.28,86.98-41.57,104.31-195.11,83.92-315.2,236.45-305.95,388.6,7.46,122.63,99.97,221.61,247.47,264.78,76.28,22.33,143.46,52.18,199.68,88.74,54.7,35.57,99.33,77.61,132.65,124.95,63.31,89.96,84.02,197.49,58.29,302.8-26.8,109.69-102.46,208.48-207.58,271.05-54.24,32.28-114.26,54.11-178.41,64.88-30.32,5.09-61.2,7.63-92.48,7.63Z"/>
    <path class="cls-1" d="m918.44,419.51c-57.61-10.98-114.5-14.24-169.09-9.71-54.28,4.51-108.03,16.87-159.78,36.74-63.85,24.52-125.64,60.43-186.84,108.72,19.08-4.89,39.07-7.49,59.67-7.49,59.89,0,114.64,21.98,156.64,58.3,85.92-39.45,173.74-48.86,269.67-30.58,43.07,8.21,84.65-20.06,92.85-63.13,8.21-43.07-20.06-84.65-63.13-92.85Z"/>
    <path class="cls-1" d="m648.98,1480.6c.05-1.96.05-3.91.02-5.84-125.1,92.99-261.46,101.71-438.16,29.02-40.55-16.69-86.95,2.67-103.63,43.22-16.68,40.55,2.67,86.95,43.22,103.63,73.19,30.11,142.88,48.96,209.4,56.51,5.2.17,10.37.25,15.47.25,124,0,270.48-89.46,273.68-226.79Z"/>
  </g>
  <g>
    <path class="cls-3" d="m1645.41,906.11v240.53c0,5.8-4.7,10.49-10.49,10.49h-396.51c-5.8,0-10.49-4.7-10.49-10.49v-240.53l-226.6,226.37v641.6c0,38.8,18.1,58.2,54.32,58.2h117.96c36.2,0,54.32-19.4,54.32-58.2v-413.99c0-5.8,4.7-10.49,10.49-10.49h396.51c5.8,0,10.49,4.7,10.49,10.49v413.99c0,38.8,18.1,58.2,54.32,58.2h117.95c36.21,0,54.32-19.4,54.32-58.2v-641.6l-226.6-226.37Z"/>
    <path class="cls-2" d="m1889.93,1062.45l48.86,48.86c25.92,25.92,67.94,25.92,93.86,0l60.12-60.12c25.92-25.92,25.92-67.94,0-93.86l-502.13-502.13-107.05-107.05c-25.92-25.92-67.94-25.92-93.86,0l-107.05,107.05-502.13,502.13c-25.92,25.92-25.92,67.94,0,93.86l60.12,60.12c25.92,25.92,67.94,25.92,93.86,0l48.86-48.86,247.59-247.33,158.75-158.75c25.92-25.92,67.94-25.92,93.86,0l158.75,158.75,247.59,247.33Z"/>
  </g>
</svg>