<?xml version="1.0" encoding="utf-8"?>
<svg id="Layer_1" xmlns="http://www.w3.org/2000/svg" xmlns:xlink="http://www.w3.org/1999/xlink" viewBox="0 0 512 512">
	<path class="sidebar" d="M487.6,298.5H25.2C0,298.5,0,281.2,0,256s0-42.5,25.2-42.5h461.6c25.2,0,25.2,17.3,25.2,42.5
		S512,298.5,487.6,298.5L487.6,298.5z M487.6,127.6H25.2C0,127.6,0,110.3,0,85.1s0-42.5,25.2-42.5h461.6c25.2,0,25.2,17.3,25.2,42.5
		S512,127.6,487.6,127.6L487.6,127.6z M25.2,384.4h461.6c25.2,0,25.2,17.3,25.2,42.5c0,25.2,0,42.5-25.2,42.5H25.2
		C0,469.5,0,452.1,0,426.9C0,401.7,0,384.4,25.2,384.4z"/>
</svg>
